<svg xmlns="http://www.w3.org/2000/svg" xmlns:xlink="http://www.w3.org/1999/xlink" width="415" zoomAndPan="magnify" viewBox="0 0 311.25 77.999999" height="104" preserveAspectRatio="xMidYMid meet" version="1.0"><defs><g/><clipPath id="a962e79ba0"><path d="M 0 0.09375 L 310.5 0.09375 L 310.5 77.90625 L 0 77.90625 Z M 0 0.09375 " clip-rule="nonzero"/></clipPath><clipPath id="1285d998b8"><path d="M 25 44 L 74 44 L 74 75.984375 L 25 75.984375 Z M 25 44 " clip-rule="nonzero"/></clipPath><clipPath id="01b90c8b7c"><path d="M 0 1.914062 L 74 1.914062 L 74 70 L 0 70 Z M 0 1.914062 " clip-rule="nonzero"/></clipPath></defs><g clip-path="url(#a962e79ba0)"><path fill="#ffffff" d="M 0 0.09375 L 310.5 0.09375 L 310.5 77.90625 L 0 77.90625 Z M 0 0.09375 " fill-opacity="1" fill-rule="nonzero"/></g><g clip-path="url(#1285d998b8)"><path fill="#0b1320" d="M 58.441406 55.300781 C 53.546875 61.71875 45.828125 65.871094 37.164062 65.871094 C 35.113281 65.871094 33.101562 65.652344 31.148438 65.203125 L 25.707031 74.472656 C 29.390625 75.667969 33.234375 76.277344 37.164062 76.277344 C 42.175781 76.277344 47.042969 75.292969 51.628906 73.355469 C 56.054688 71.484375 60.027344 68.804688 63.4375 65.394531 C 66.390625 62.441406 68.796875 59.066406 70.601562 55.34375 C 70.882812 54.765625 71.148438 54.175781 71.398438 53.582031 C 72.578125 50.796875 73.402344 47.910156 73.867188 44.945312 L 43.066406 44.945312 L 36.960938 55.300781 Z M 58.441406 55.300781 " fill-opacity="1" fill-rule="nonzero"/></g><g clip-path="url(#01b90c8b7c)"><path fill="#0b1320" d="M 22.320312 5.042969 C 17.789062 7.015625 13.753906 9.835938 10.324219 13.417969 C 9.78125 13.984375 9.246094 14.574219 8.742188 15.175781 L 8.742188 15.179688 C 8.65625 15.277344 8.570312 15.378906 8.488281 15.480469 L 22.378906 39.121094 L 14.808594 52.003906 L 1.296875 29.347656 C 0.441406 32.496094 0 35.78125 0 39.121094 C 0 42.972656 0.582031 46.738281 1.730469 50.355469 C 2.074219 51.445312 2.472656 52.523438 2.921875 53.585938 C 4.332031 56.914062 6.199219 59.988281 8.488281 62.757812 C 9.101562 63.496094 9.742188 64.21875 10.414062 64.914062 L 10.429688 64.9375 L 10.886719 65.394531 C 12.570312 67.078125 14.390625 68.582031 16.339844 69.902344 C 16.339844 69.902344 16.34375 69.902344 16.34375 69.90625 L 34.429688 39.117188 L 21.617188 17.3125 C 26.117188 14.085938 31.488281 12.339844 37.160156 12.339844 C 45.828125 12.339844 53.546875 16.515625 58.441406 22.878906 L 36.964844 22.878906 L 43.070312 33.292969 L 73.867188 33.292969 C 73.402344 30.324219 72.578125 27.4375 71.398438 24.65625 C 71.148438 24.058594 70.882812 23.472656 70.601562 22.894531 C 68.796875 19.171875 66.390625 15.792969 63.4375 12.839844 C 60.027344 9.429688 56.054688 6.75 51.628906 4.878906 C 47.042969 2.945312 42.175781 1.960938 37.160156 1.960938 C 32.003906 1.960938 27.011719 2.996094 22.320312 5.042969 Z M 22.320312 5.042969 " fill-opacity="1" fill-rule="nonzero"/></g><path stroke-linecap="round" transform="matrix(0, -0.748197, 0.748197, 0, 95.883779, 76.327881)" fill="none" stroke-linejoin="miter" d="M 2.500477 2.499512 L 96.967147 2.499512 " stroke="#0b1320" stroke-width="5" stroke-opacity="1" stroke-miterlimit="4"/><g fill="#0b1320" fill-opacity="1"><g transform="translate(121.224651, 33.966341)"><g><path d="M 11.390625 0.359375 C 9.648438 0.359375 8.140625 0.0625 6.859375 -0.53125 C 5.578125 -1.132812 4.519531 -1.945312 3.6875 -2.96875 C 2.851562 -4 2.226562 -5.179688 1.8125 -6.515625 C 1.40625 -7.859375 1.203125 -9.257812 1.203125 -10.71875 C 1.203125 -12.175781 1.40625 -13.566406 1.8125 -14.890625 C 2.226562 -16.222656 2.851562 -17.40625 3.6875 -18.4375 C 4.519531 -19.46875 5.578125 -20.273438 6.859375 -20.859375 C 8.140625 -21.453125 9.648438 -21.75 11.390625 -21.75 C 13.109375 -21.75 14.597656 -21.460938 15.859375 -20.890625 C 17.128906 -20.316406 18.140625 -19.519531 18.890625 -18.5 C 19.648438 -17.488281 20.132812 -16.304688 20.34375 -14.953125 L 16.4375 -14.953125 C 16.21875 -16.117188 15.648438 -17.015625 14.734375 -17.640625 C 13.816406 -18.265625 12.6875 -18.578125 11.34375 -18.578125 C 9.9375 -18.578125 8.75 -18.238281 7.78125 -17.5625 C 6.820312 -16.894531 6.097656 -15.96875 5.609375 -14.78125 C 5.128906 -13.601562 4.890625 -12.25 4.890625 -10.71875 C 4.890625 -9.1875 5.128906 -7.820312 5.609375 -6.625 C 6.097656 -5.425781 6.820312 -4.488281 7.78125 -3.8125 C 8.75 -3.144531 9.9375 -2.8125 11.34375 -2.8125 C 12.6875 -2.8125 13.816406 -3.140625 14.734375 -3.796875 C 15.648438 -4.460938 16.21875 -5.460938 16.4375 -6.796875 L 20.34375 -6.796875 C 20.03125 -4.617188 19.097656 -2.878906 17.546875 -1.578125 C 16.003906 -0.285156 13.953125 0.359375 11.390625 0.359375 Z M 11.390625 0.359375 "/></g></g></g><g fill="#0b1320" fill-opacity="1"><g transform="translate(147.395428, 33.966341)"><g><path d="M 5.5625 0 L 2 0 L 2 -21.40625 L 5.5625 -21.40625 Z M 5.5625 0 "/></g></g></g><g fill="#0b1320" fill-opacity="1"><g transform="translate(159.851113, 33.966341)"><g><path d="M 14.09375 -9.34375 L 18.046875 0 L 14.203125 0 L 10.65625 -8.734375 L 5.5625 -8.734375 L 5.5625 0 L 2 0 L 2 -21.40625 L 10.828125 -21.40625 C 12.179688 -21.40625 13.363281 -21.1875 14.375 -20.75 C 15.382812 -20.3125 16.171875 -19.632812 16.734375 -18.71875 C 17.304688 -17.800781 17.59375 -16.613281 17.59375 -15.15625 C 17.59375 -13.726562 17.285156 -12.523438 16.671875 -11.546875 C 16.054688 -10.566406 15.195312 -9.832031 14.09375 -9.34375 Z M 5.5625 -18.21875 L 5.5625 -11.84375 L 10.359375 -11.84375 C 11.566406 -11.84375 12.488281 -12.117188 13.125 -12.671875 C 13.769531 -13.222656 14.09375 -14.015625 14.09375 -15.046875 C 14.09375 -16.066406 13.769531 -16.847656 13.125 -17.390625 C 12.476562 -17.941406 11.554688 -18.21875 10.359375 -18.21875 Z M 5.5625 -18.21875 "/></g></g></g><g fill="#0b1320" fill-opacity="1"><g transform="translate(183.750067, 33.966341)"><g><path d="M 11.390625 0.359375 C 9.648438 0.359375 8.140625 0.0625 6.859375 -0.53125 C 5.578125 -1.132812 4.519531 -1.945312 3.6875 -2.96875 C 2.851562 -4 2.226562 -5.179688 1.8125 -6.515625 C 1.40625 -7.859375 1.203125 -9.257812 1.203125 -10.71875 C 1.203125 -12.175781 1.40625 -13.566406 1.8125 -14.890625 C 2.226562 -16.222656 2.851562 -17.40625 3.6875 -18.4375 C 4.519531 -19.46875 5.578125 -20.273438 6.859375 -20.859375 C 8.140625 -21.453125 9.648438 -21.75 11.390625 -21.75 C 13.109375 -21.75 14.597656 -21.460938 15.859375 -20.890625 C 17.128906 -20.316406 18.140625 -19.519531 18.890625 -18.5 C 19.648438 -17.488281 20.132812 -16.304688 20.34375 -14.953125 L 16.4375 -14.953125 C 16.21875 -16.117188 15.648438 -17.015625 14.734375 -17.640625 C 13.816406 -18.265625 12.6875 -18.578125 11.34375 -18.578125 C 9.9375 -18.578125 8.75 -18.238281 7.78125 -17.5625 C 6.820312 -16.894531 6.097656 -15.96875 5.609375 -14.78125 C 5.128906 -13.601562 4.890625 -12.25 4.890625 -10.71875 C 4.890625 -9.1875 5.128906 -7.820312 5.609375 -6.625 C 6.097656 -5.425781 6.820312 -4.488281 7.78125 -3.8125 C 8.75 -3.144531 9.9375 -2.8125 11.34375 -2.8125 C 12.6875 -2.8125 13.816406 -3.140625 14.734375 -3.796875 C 15.648438 -4.460938 16.21875 -5.460938 16.4375 -6.796875 L 20.34375 -6.796875 C 20.03125 -4.617188 19.097656 -2.878906 17.546875 -1.578125 C 16.003906 -0.285156 13.953125 0.359375 11.390625 0.359375 Z M 11.390625 0.359375 "/></g></g></g><g fill="#0b1320" fill-opacity="1"><g transform="translate(209.920844, 33.966341)"><g><path d="M 10.21875 0.359375 C 8.25 0.359375 6.644531 0.03125 5.40625 -0.625 C 4.175781 -1.289062 3.265625 -2.226562 2.671875 -3.4375 C 2.085938 -4.644531 1.796875 -6.046875 1.796875 -7.640625 L 1.796875 -21.40625 L 5.359375 -21.40625 L 5.359375 -7.640625 C 5.359375 -6.210938 5.722656 -5.050781 6.453125 -4.15625 C 7.179688 -3.257812 8.4375 -2.8125 10.21875 -2.8125 C 11.988281 -2.8125 13.234375 -3.257812 13.953125 -4.15625 C 14.679688 -5.050781 15.046875 -6.210938 15.046875 -7.640625 L 15.046875 -21.40625 L 18.609375 -21.40625 L 18.609375 -7.640625 C 18.609375 -6.046875 18.316406 -4.644531 17.734375 -3.4375 C 17.148438 -2.226562 16.238281 -1.289062 15 -0.625 C 13.769531 0.03125 12.175781 0.359375 10.21875 0.359375 Z M 10.21875 0.359375 "/></g></g></g><g fill="#0b1320" fill-opacity="1"><g transform="translate(235.194116, 33.966341)"><g><path d="M 14.8125 0 L 2 0 L 2 -21.40625 L 5.5625 -21.40625 L 5.5625 -3.203125 L 14.8125 -3.203125 Z M 14.8125 0 "/></g></g></g><g fill="#0b1320" fill-opacity="1"><g transform="translate(255.194511, 33.966341)"><g><path d="M 3.953125 0 L 0.25 0 L 7.90625 -21.40625 L 11.84375 -21.40625 L 19.5 0 L 15.796875 0 L 14.234375 -4.6875 L 5.5625 -4.6875 Z M 9.875 -17.59375 L 6.59375 -7.796875 L 13.15625 -7.796875 Z M 9.875 -17.59375 "/></g></g></g><g fill="#0b1320" fill-opacity="1"><g transform="translate(279.794645, 33.966341)"><g><path d="M 14.09375 -9.34375 L 18.046875 0 L 14.203125 0 L 10.65625 -8.734375 L 5.5625 -8.734375 L 5.5625 0 L 2 0 L 2 -21.40625 L 10.828125 -21.40625 C 12.179688 -21.40625 13.363281 -21.1875 14.375 -20.75 C 15.382812 -20.3125 16.171875 -19.632812 16.734375 -18.71875 C 17.304688 -17.800781 17.59375 -16.613281 17.59375 -15.15625 C 17.59375 -13.726562 17.285156 -12.523438 16.671875 -11.546875 C 16.054688 -10.566406 15.195312 -9.832031 14.09375 -9.34375 Z M 5.5625 -18.21875 L 5.5625 -11.84375 L 10.359375 -11.84375 C 11.566406 -11.84375 12.488281 -12.117188 13.125 -12.671875 C 13.769531 -13.222656 14.09375 -14.015625 14.09375 -15.046875 C 14.09375 -16.066406 13.769531 -16.847656 13.125 -17.390625 C 12.476562 -17.941406 11.554688 -18.21875 10.359375 -18.21875 Z M 5.5625 -18.21875 "/></g></g></g><g fill="#0b1320" fill-opacity="1"><g transform="translate(121.224651, 66.523027)"><g><path d="M 14.75 0 L 1.8125 0 L 1.8125 -19.546875 L 14.75 -19.546875 L 14.75 -16.625 L 5.078125 -16.625 L 5.078125 -11.25 L 13.671875 -11.25 L 13.671875 -8.34375 L 5.078125 -8.34375 L 5.078125 -2.921875 L 14.75 -2.921875 Z M 14.75 0 "/></g></g></g><g fill="#0b1320" fill-opacity="1"><g transform="translate(141.4982, 66.523027)"><g><path d="M 7.40625 0 L 1.8125 0 L 1.8125 -19.546875 L 7.421875 -19.546875 C 10.703125 -19.546875 13.210938 -18.695312 14.953125 -17 C 16.691406 -15.3125 17.5625 -12.894531 17.5625 -9.75 C 17.5625 -6.632812 16.691406 -4.226562 14.953125 -2.53125 C 13.210938 -0.84375 10.695312 0 7.40625 0 Z M 5.078125 -16.625 L 5.078125 -2.921875 L 7.375 -2.921875 C 8.707031 -2.921875 9.894531 -3.117188 10.9375 -3.515625 C 11.976562 -3.921875 12.800781 -4.625 13.40625 -5.625 C 14.007812 -6.625 14.3125 -8 14.3125 -9.75 C 14.3125 -11.394531 14.019531 -12.71875 13.4375 -13.71875 C 12.863281 -14.726562 12.054688 -15.460938 11.015625 -15.921875 C 9.972656 -16.390625 8.757812 -16.625 7.375 -16.625 Z M 5.078125 -16.625 "/></g></g></g><g fill="#0b1320" fill-opacity="1"><g transform="translate(164.61277, 66.523027)"><g><path d="M 9.328125 0.328125 C 7.535156 0.328125 6.070312 0.0234375 4.9375 -0.578125 C 3.8125 -1.179688 2.976562 -2.03125 2.4375 -3.125 C 1.90625 -4.226562 1.640625 -5.507812 1.640625 -6.96875 L 1.640625 -19.546875 L 4.890625 -19.546875 L 4.890625 -6.96875 C 4.890625 -5.664062 5.222656 -4.601562 5.890625 -3.78125 C 6.554688 -2.96875 7.703125 -2.5625 9.328125 -2.5625 C 10.941406 -2.5625 12.078125 -2.96875 12.734375 -3.78125 C 13.398438 -4.601562 13.734375 -5.664062 13.734375 -6.96875 L 13.734375 -19.546875 L 16.984375 -19.546875 L 16.984375 -6.96875 C 16.984375 -5.507812 16.71875 -4.226562 16.1875 -3.125 C 15.65625 -2.03125 14.828125 -1.179688 13.703125 -0.578125 C 12.578125 0.0234375 11.117188 0.328125 9.328125 0.328125 Z M 9.328125 0.328125 "/></g></g></g></svg>